<?xml version="1.0" encoding="UTF-8" standalone="no" ?>
<!DOCTYPE svg PUBLIC "-//W3C//DTD SVG 1.1//EN" "http://www.w3.org/Graphics/SVG/1.1/DTD/svg11.dtd">
<svg xmlns="http://www.w3.org/2000/svg" xmlns:xlink="http://www.w3.org/1999/xlink" version="1.1" width="500" height="500" viewBox="0 0 500 450" xml:space="preserve">
<desc>Created with Fabric.js 4.6.0</desc>
<defs>
</defs>
<g transform="matrix(1 0 0 1 250 370.58)" id="4tNhJBLFRzRRDR8g7bMgn"  >
<path style="stroke: none; stroke-width: 1; stroke-dasharray: none; stroke-linecap: butt; stroke-dashoffset: 0; stroke-linejoin: miter; stroke-miterlimit: 4; fill: rgb(255,255,255); fill-rule: nonzero; opacity: 1;" vector-effect="non-scaling-stroke"  transform=" translate(-243.84, -364.42)" d="M 377.996 282.347 C 321.79499999999996 263.99 298.433 241.16199999999998 298.433 241.16199999999998 L 296.552 242.95499999999998 C 279.862 258.664 261.403 267.899 244.58700000000002 267.899 L 243 267.899 C 226.185 267.899 207.726 258.664 191.036 242.955 L 189.154 241.162 C 189.154 241.162 165.79399999999998 263.98900000000003 109.592 282.347 C 26.628 313.339 51.539 439.466 51.515 440.443 C 54.128 454.49 55.651 459.318 56.978 459.86 C 140.292 496.951 347.297 496.951 430.612 459.86 C 431.939 459.31800000000004 433.46200000000005 454.49 436.07500000000005 440.443 C 436.051 439.466 461.295 313.84 377.996 282.347 z" stroke-linecap="round" />
</g>
<g transform="matrix(1 0 0 1 249.33 132.01)" id="8L6k0Du3mWVEUYAxDlaeU"  >
<path style="stroke: none; stroke-width: 1; stroke-dasharray: none; stroke-linecap: butt; stroke-dashoffset: 0; stroke-linejoin: miter; stroke-miterlimit: 4; fill: rgb(255,255,255); fill-rule: nonzero; opacity: 1;" vector-effect="non-scaling-stroke"  transform=" translate(-243.17, -125.85)" d="M 330.924 121.441 L 330.22799999999995 120.686 C 325.55999999999995 116.412 325.92499999999995 116.65700000000001 325.92499999999995 116.65700000000001 C 325.92499999999995 116.65700000000001 334.06699999999995 75.57400000000001 327.53799999999995 56.14600000000001 C 317.28799999999995 25.119000000000007 256.063 4.324000000000005 243.78299999999996 1.9070000000000107 C 243.78499999999997 1.8840000000000108 236.31399999999996 0.38900000000001067 235.83699999999996 0.3860000000000108 C 235.83699999999996 0.3860000000000108 226.17799999999997 -1.5669999999999893 214.98299999999995 3.316000000000011 C 207.69199999999995 6.121000000000011 169.57499999999993 23.40600000000001 158.75599999999994 56.14600000000001 C 152.22799999999995 75.57400000000001 160.36999999999995 116.65700000000001 160.36999999999995 116.65700000000001 C 160.36999999999995 116.65700000000001 160.73499999999996 116.412 156.06599999999995 120.686 L 155.37099999999995 121.441 C 152.21299999999997 125.027 152.99299999999994 136.247 156.44499999999996 147.92000000000002 C 159.57299999999998 159.615 163.64999999999998 162.758 164.62699999999995 165.497 C 174.52999999999994 211.99400000000003 208.96499999999995 251.69400000000002 244.05599999999995 251.69400000000002 C 279.14699999999993 251.69400000000002 311.7629999999999 211.99400000000003 321.66599999999994 165.497 C 322.64399999999995 162.75900000000001 326.72099999999995 159.615 329.84899999999993 147.92000000000002 C 333.301 136.246 334.172 124.256 330.924 121.441 z" stroke-linecap="round" />
</g>
</svg>